# xmcd
#
# Track frame offsets:
#	150
#	17127
#	34170
#	53002
#	73957
#	86752
#	102732
#	118277
#	136547
#	148975
#
# Disc length: 2180 seconds
#
# Revision: 3
# Processed by: cddbd v1.5.2PL0 Copyright (c) Steve Scherf et al.
# Submitted via: audiograbber 1.83.01
#
DISCID=9708820a
DTITLE=Lee Roy Parnell - Every Night's A Saturday Night
DYEAR=1997
DGENRE=Country
TTITLE0=Lucky Me, Lucky You
TTITLE1=You Can't Get There From Here
TTITLE2=One Foot In Front Of The Other
TTITLE3=All That Matters Anymore
TTITLE4=Every Night's A Saturday Night
TTITLE5=Tender Touch
TTITLE6=Better Word For Love (Guest Vocal: Trisha Yearwood)
TTITLE7=Honky Tonk Night Time Man
TTITLE8=Baton Rouge (Guest Vocal: Guy Clark)
TTITLE9=Mama, Screw Your Wig On Tight (Instrumental)
EXTD=
EXTT0=
EXTT1=
EXTT2=
EXTT3=
EXTT4=
EXTT5=
EXTT6=
EXTT7=
EXTT8=
EXTT9=
PLAYORDER=
